<svg xmlns="http://www.w3.org/2000/svg" width="64" height="64" viewBox="0 0 64 64">
  <rect x="6" y="4" width="52" height="56" rx="6" fill="#5e8c3e"/>
  <rect x="6" y="4" width="52" height="18" rx="6" fill="#7ec850"/>
  <rect x="6" y="18" width="52" height="6" fill="#5aa03a"/>
  <rect x="6" y="22" width="52" height="38" rx="0" fill="#8b6b4a"/>
  <rect x="6" y="22" width="52" height="38" rx="0" fill="none" stroke="#6d4f32" stroke-width="0"/>
  <rect x="6" y="4" width="52" height="56" rx="6" fill="none" stroke="#4a7a2e" stroke-width="2"/>
  <rect x="6" y="20" width="52" height="2" fill="#4a8a2e"/>
  <path d="M12 14h4v3h-4zM22 8h3v5h-3zM32 11h5v4h-5zM44 9h3v4h-3zM26 15h2v2h-2zM38 7h2v2h-2z" fill="#6ab840" opacity="0.4"/>
  <path d="M14 30h3v2h-3zM28 34h4v2h-4zM40 28h2v3h-2zM48 36h3v2h-3zM18 44h3v2h-3zM34 46h2v2h-2zM24 52h4v2h-4z" fill="#543a22" opacity="0.2"/>
</svg>
